<?xml version="1.0" encoding="utf-8"?>
<!-- Generator: Adobe Illustrator 19.0.1, SVG Export Plug-In . SVG Version: 6.00 Build 0)  -->
<svg version="1.1" xmlns="http://www.w3.org/2000/svg" xmlns:xlink="http://www.w3.org/1999/xlink" x="0px" y="0px"
	 viewBox="0 0 708 294" style="enable-background:new 0 0 708 294;" xml:space="preserve">
<style type="text/css">
	.st0{display:none;}
	.st1{display:inline;fill:#47BC9D;}
	.st2{display:inline;}
	.st3{fill:none;stroke:#106556;stroke-width:40;stroke-miterlimit:10;}
	.st4{fill:#106556;}
	.st5{fill:none;stroke:#000000;stroke-width:40;stroke-miterlimit:10;}
	.st6{fill:none;stroke:#FFFFFF;stroke-width:20;stroke-miterlimit:10;}
	.st7{fill:none;stroke:#116657;stroke-width:40;stroke-miterlimit:10;}
	.st8{fill:#FFFFFF;}
	.st9{fill:#F16357;}
	.st10{fill:#47BD9E;}
</style>
<g id="Layer_2" class="st0">
	<rect x="-187.1" y="-615.6" class="st1" width="1084.3" height="1000"/>
</g>
<g id="Layer_1">
</g>
<g id="Layer_5">
</g>
<g id="Layer_7">
</g>
<g id="Layer_6" class="st0">
	<g class="st2">
		<circle class="st3" cx="352.4" cy="-316.6" r="210.3"/>
		<g>
			<circle class="st4" cx="247.5" cy="-317.6" r="29.5"/>
			<circle class="st4" cx="457.2" cy="-316.6" r="29.5"/>
		</g>
		<path class="st4" d="M352.4-175.9c46.7,0,84.6-37.9,84.6-84.6H267.7C267.7-213.8,305.6-175.9,352.4-175.9z"/>
		<path class="st5" d="M184.2-317.6"/>
		<path class="st5" d="M520.5-317.6"/>
		<path class="st6" d="M563.3-316.6c0,0,88.3,1.8,45,110.4C563.3-93.4,437.7-21.4,353.1-12.4h-0.7c-84.6-9-210.3-81-255.3-193.8
			c-43.3-108.6,45-110.4,45-110.4"/>
		<path class="st7" d="M561.8-130.1c-58.3,68.6-145.1,111-208.8,117.7h-0.7c-63.5-6.7-150-48.9-208.3-117.2"/>
		<path class="st7" d="M352.4-12.4V95.1c-11.6,75.4-53.2,79.1-134.3,74"/>
	</g>
</g>
<g id="Layer_8">
	<g>
		<path class="st8" d="M28.3,153.7c0-29.7,10.9-55.2,32.7-76.6c21.7-21.3,47.8-32,78.2-32c30.1,0,55.9,10.8,77.4,32.3
			C238.2,99,249,124.8,249,155c0,30.4-10.8,56.1-32.5,77.2c-21.8,21.2-48.1,31.9-78.9,31.9c-27.3,0-51.7-9.4-73.4-28.3
			C40.3,214.9,28.3,187.6,28.3,153.7z M60.4,154.1c0,23.3,7.8,42.5,23.5,57.5c15.6,15,33.6,22.5,54,22.5c22.1,0,40.8-7.6,56.1-22.9
			c15.2-15.5,22.8-34.3,22.8-56.6c0-22.5-7.5-41.3-22.6-56.6c-14.9-15.3-33.5-22.9-55.5-22.9c-22,0-40.5,7.6-55.6,22.9
			C68,113.2,60.4,131.9,60.4,154.1z"/>
		<path class="st8" d="M313.8,245.1c0,2.2-0.4,4.2-1.2,6.1c-0.8,1.9-1.9,3.5-3.3,4.9c-1.4,1.4-3,2.4-4.9,3.2
			c-1.9,0.8-3.9,1.2-6.1,1.2c-2.1,0-4.1-0.4-5.9-1.2c-1.9-0.8-3.5-1.9-4.9-3.3c-1.4-1.4-2.5-3-3.3-4.9c-0.8-1.9-1.2-3.9-1.2-6.1
			v-1.2V44.8v-0.3c0-2.1,0.4-4.1,1.2-6s1.9-3.6,3.3-5c1.4-1.4,3-2.5,4.9-3.3c1.9-0.8,3.8-1.2,5.9-1.2c2.1,0,4.1,0.4,5.9,1.2
			c1.9,0.8,3.5,1.9,4.9,3.3c1.4,1.4,2.5,3.1,3.3,4.9c0.8,1.9,1.2,3.9,1.2,5.9v198.9V245.1z"/>
		<path class="st8" d="M368.5,92c-5.7,0-10.4-2-14.2-5.9c-4-4-6-8.8-6-14.4c0-5.3,2-9.9,6-13.9c3.9-3.9,8.6-5.9,14.1-5.9
			c5.4,0,10.1,2,14.2,5.9c3.9,3.8,5.9,8.5,5.9,14.1c0,5.6-2,10.3-5.9,14.2C378.7,90,374,92,368.5,92z M368.5,127
			c2.2,0,4.2,0.4,6.1,1.2c1.9,0.8,3.5,1.9,4.9,3.3c1.4,1.4,2.5,3.1,3.3,4.9c0.8,1.9,1.2,3.9,1.2,5.9v0.4v101.7
			c-0.1,0.1-0.1,0.2-0.1,0.4c0,2.1-0.4,4.1-1.2,5.9c-0.8,1.8-1.9,3.4-3.3,4.8c-1.4,1.4-3,2.5-4.9,3.3c-1.9,0.8-3.9,1.2-5.9,1.2
			c-2.1,0-4.1-0.4-5.9-1.2c-1.9-0.8-3.5-1.9-4.9-3.3c-1.4-1.4-2.5-3-3.3-4.9c-0.8-1.9-1.2-3.8-1.2-5.9v-1.6V142.8v-0.4
			c0-2.1,0.4-4.1,1.2-5.9c0.8-1.9,1.9-3.5,3.3-4.9c1.4-1.4,3-2.5,4.9-3.3C364.4,127.4,366.4,127,368.5,127z"/>
		<path class="st8" d="M517.6,126.8c2.2,0,4.2,0.4,6.1,1.2c1.9,0.8,3.5,1.9,4.9,3.3s2.5,3,3.3,4.9c0.8,1.9,1.2,3.9,1.2,6.1
			c0,2.9-0.7,5.5-2.1,7.7L480.9,253l-0.1-0.1c-0.9,2-1.9,3.8-2.9,5.5c-0.8,1.4-1.7,2.6-2.5,3.7c-0.9,1.1-1.7,1.6-2.4,1.6
			c-0.5,0-1-0.3-1.5-0.8s-1.1-1.2-1.7-2.1c-0.6-0.8-1.2-1.7-1.8-2.7c-0.6-1-1.1-1.8-1.4-2.7l-51.1-106c-1.3-2.3-1.9-4.7-1.9-7.4
			c0-2.1,0.4-4.1,1.2-5.9c0.8-1.9,1.9-3.5,3.3-4.9c1.4-1.4,3.1-2.5,4.9-3.3c1.9-0.8,3.9-1.2,6.1-1.2c3.1,0,5.9,0.8,8.4,2.5
			c2.5,1.7,4.4,3.9,5.5,6.6l0.1,0.1l28.6,61.7c0.2,0.5,0.4,0.9,0.8,1.3c0.3,0.4,0.6,0.6,0.9,0.6c0.4,0,0.8-0.5,1.4-1.5
			c0.3-0.4,0.5-0.9,0.8-1.5v0.1l27.9-60.7c1.2-2.7,3.1-5,5.6-6.7C511.6,127.7,514.4,126.8,517.6,126.8z"/>
		<path class="st8" d="M668,243.2c-4.4,4.7-9.2,8.8-14.5,12.2c-5.1,3-10.6,5.3-16.5,6.8c-5.8,1.5-12.3,2.2-19.3,2.2
			c-20,0-36-6.4-48-19.3c-12-12.7-18-29.7-18-51.1c0-21.1,5.8-38.1,17.5-51.1c11.7-12.9,27.3-19.3,46.9-19.3
			c9.9,0,18.7,1.5,26.4,4.6c7.7,3.1,14.4,7.8,20.1,14.2c11.4,12.4,17.1,29.5,17.1,51.4c-0.2,2.1-1,3.9-2.5,5.3
			c-1.5,1.5-3.3,2.2-5.4,2.2h-80.7c-0.4,0-1,0-1.8,0.1c-0.8,0.1-1.6,0.3-2.4,0.8c-0.8,0.4-1.4,1-1.8,1.9c-0.5,0.9-0.5,2.1-0.3,3.6
			c1.5,7.9,4.7,14.4,9.7,19.6c6.4,6.4,14.5,9.6,24.3,9.6c7.7,0,14-1.8,19.1-5.5c1.4-1,2.8-2.3,4.3-3.9c1.5-1.6,3.1-3.4,4.9-5.5
			c1.4-1.9,3.1-3.4,5.3-4.5c2.1-1.1,4.4-1.6,6.8-1.6c2.1,0,4.1,0.4,5.9,1.2c1.8,0.8,3.4,1.8,4.7,3.2c1.3,1.4,2.4,3,3.1,4.8
			c0.8,1.8,1.2,3.7,1.2,5.7c0,3.6-1.1,6.7-3.3,9.4c-0.1,0.2-0.2,0.3-0.3,0.3c-0.1,0-0.2,0.1-0.3,0.2L668,243.2z M588,169.9
			c-0.2,0.5-0.3,1-0.4,1.7c-0.1,0.7,0,1.3,0.3,2c0.3,0.6,0.8,1.2,1.6,1.7c0.8,0.5,2,0.8,3.6,0.8h0.4h48.3c1.3-0.1,2.2-0.4,2.9-0.9
			c0.6-0.5,1.1-1,1.3-1.6c0.2-0.6,0.3-1.2,0.2-1.8c-0.1-0.6-0.2-1.1-0.3-1.6c-5.1-12.6-14.8-18.9-29.1-18.9c-4,0-7.5,0.6-10.5,1.8
			c-3.3,1.1-6.3,2.7-9,4.9c-1.4,1.1-2.6,2.3-3.8,3.5c-1.1,1.2-2.2,2.6-3.1,4.2c-0.5,0.7-0.9,1.4-1.2,2.1
			C588.8,168.4,588.4,169.2,588,169.9z"/>
	</g>
	<path class="st9" d="M183.6,120.2c-28.3-22.7-46.8,16.3-46.8,16.3l0,0l0,0c0,0-18.5-39-46.8-16.3c-26,20.8,14.7,73.6,46.8,80.8h0h0
		C168.8,193.8,209.6,141,183.6,120.2z"/>
</g>
<g id="Layer_3" class="st0">
	<g class="st2">
		<circle class="st10" cx="250.8" cy="-333.7" r="29.5"/>
		<circle class="st10" cx="460.5" cy="-332.7" r="29.5"/>
	</g>
	<g class="st2">
		<circle class="st10" cx="250.8" cy="-329.7" r="29.5"/>
		<circle class="st10" cx="460.5" cy="-328.7" r="29.5"/>
	</g>
</g>
<g id="Layer_4" class="st0">
	<g class="st2">
		<circle class="st10" cx="250.8" cy="-312.7" r="29.5"/>
		<circle class="st10" cx="460.5" cy="-311.7" r="29.5"/>
	</g>
</g>
</svg>
